PathFileType	4	(X/Y/Z)	s11c0203.trc
DataRate	CameraRate	NumFrames	NumMarkers	Units	OrigDataRate	OrigDataStartFrame	OrigNumFrames
200	200	4	48	mm	200	500	2000
Frame#	Time	racr			lacr			c7			jug			rlel			rdr			llel			ldr			s2			lic			ric			lasi			rasi			rpsi			lpsi			rgt			lgt			rth1			rth2			rth3			rth4			rlfc			rmfc			rsh1			rsh2			rsh3			rsh4			rlmal			rcal			rtoe			rmt5			lth1			lth2			lth4			lth3			llfc			lmfc			llmal			lcal			lmt5			lsh1			lsh2			lsh3			lsh4			ltoe			SBIKE			LBIKE			RBIKE			
		X1	Y1	Z1	X2	Y2	Z2	X3	Y3	Z3	X4	Y4	Z4	X5	Y5	Z5	X6	Y6	Z6	X7	Y7	Z7	X8	Y8	Z8	X9	Y9	Z9	X10	Y10	Z10	X11	Y11	Z11	X12	Y12	Z12	X13	Y13	Z13	X14	Y14	Z14	X15	Y15	Z15	X16	Y16	Z16	X17	Y17	Z17	X18	Y18	Z18	X19	Y19	Z19	X20	Y20	Z20	X21	Y21	Z21	X22	Y22	Z22	X23	Y23	Z23	X24	Y24	Z24	X25	Y25	Z25	X26	Y26	Z26	X27	Y27	Z27	X28	Y28	Z28	X29	Y29	Z29	X30	Y30	Z30	X31	Y31	Z31	X32	Y32	Z32	X33	Y33	Z33	X34	Y34	Z34	X35	Y35	Z35	X36	Y36	Z36	X37	Y37	Z37	X38	Y38	Z38	X39	Y39	Z39	X40	Y40	Z40	X41	Y41	Z41	X42	Y42	Z42	X43	Y43	Z43	X44	Y44	Z44	X45	Y45	Z45	X46	Y46	Z46	X47	Y47	Z47	X48	Y48	Z48	
500	2.5000	441.989854	1347.678109	-19.013494	508.507943	1339.535552	-285.196828	413.720092	1436.407481	-169.056178	416.331916	1254.768307	-171.993826	511.354082	1087.861186	55.663739	751.999448	971.029734	-78.676845	566.323004	1156.599978	-524.637278	782.150708	954.219998	-443.405422	-145.677307	1188.886277	-285.368785	83.818227	1219.943945	-467.314253	40.439487	1230.843672	-57.353384	121.048616	1155.026265	-442.594523	89.910514	1172.965011	-99.556224	-116.342510	1277.998870	-233.362080	-104.790681	1267.822726	-326.037778	34.946239	1102.572111	-48.928104	-3.608903	1067.681422	-475.641266	171.930442	1051.207408	-54.712210	260.112158	1041.687771	-66.831213	330.454757	990.154871	-79.255816	271.302597	1074.532693	-80.382684	428.871173	937.784721	-98.405164	425.406392	910.325633	-226.121779	383.000095	782.082398	-80.340897	370.300934	695.572282	-96.948927	319.860699	625.075428	-91.654886	391.272950	689.892478	-129.730362	256.848795	502.467626	-99.196553	188.005593	476.646499	-142.041825	475.480877	469.766990	-150.814260	411.795451	436.021772	-78.039800	102.511460	962.825026	-486.495943	173.042310	915.301297	-477.779062	200.992663	938.458565	-471.404807	212.271056	834.637782	-469.932783	286.869369	722.757360	-441.052407	297.370668	721.332791	-312.519936	50.232083	368.655561	-410.263861	-14.854754	354.992305	-374.472632	135.899557	213.793474	-446.819341	222.401614	616.463483	-458.811478	197.415886	537.149745	-439.305603	134.571470	475.103669	-435.468951	223.334215	525.778309	-413.178114	231.153890	182.291673	-386.103944	-216.629171	949.028781	-257.431660	-18.059816	80.732250	-460.771528	-18.083566	80.757131	-61.981879	
501	2.5050	442.534763	1345.147446	-18.207307	509.714165	1335.939013	-284.590675	415.524465	1433.880220	-168.466638	416.335946	1252.188621	-171.102571	510.086063	1085.454199	57.394449	750.956234	971.145557	-78.046929	564.983902	1154.969239	-525.309339	782.017667	954.281364	-443.433296	-145.304463	1190.811099	-284.974703	84.218837	1220.691577	-467.505054	41.589603	1231.660138	-57.654290	120.836605	1155.393678	-443.094699	90.551019	1173.103153	-100.239738	-115.241325	1279.814521	-233.227277	-103.958603	1269.589909	-326.010816	35.194279	1103.210716	-49.406774	-4.476249	1068.866762	-476.090098	171.404603	1050.217138	-54.722625	259.393248	1039.242326	-66.904896	329.028211	986.836918	-79.244233	271.073134	1071.856277	-80.601984	426.545172	932.481341	-98.061820	423.637851	905.206718	-225.773835	382.100042	776.746797	-79.748578	370.354235	690.131993	-96.324978	320.860327	618.994374	-90.718043	391.320299	684.625981	-129.169985	259.421715	495.289913	-98.563014	190.757722	468.706826	-141.186525	478.368947	465.603301	-150.882840	415.346674	430.934027	-77.988942	101.788766	963.702156	-486.585983	172.649172	916.644419	-478.102216	200.335987	939.930412	-471.356306	212.248015	836.329097	-470.560125	287.818800	724.831814	-441.090221	298.004945	723.087441	-312.852293	46.702233	373.880184	-409.986159	-18.684768	360.417695	-374.294396	131.827876	219.143033	-446.917834	222.275559	619.057774	-458.867022	196.368008	540.144797	-439.236267	132.833098	478.742270	-435.268806	222.006232	528.705258	-413.016884	227.084535	187.454526	-386.016852	-216.609120	949.037939	-257.466186	-18.073193	80.742578	-460.747640	-18.100390	80.770095	-62.001286	
502	2.5100	443.221972	1342.826614	-17.403391	510.982359	1332.417664	-284.268644	417.400990	1431.350969	-167.923148	416.503273	1249.622616	-170.067382	508.868550	1083.183377	59.070844	749.854272	971.288744	-77.287563	563.477340	1153.289653	-526.198788	781.878092	954.339332	-443.402454	-144.827507	1192.624433	-284.662673	84.540486	1221.253941	-467.473811	42.947027	1232.187514	-57.927644	120.665305	1155.699903	-443.497946	91.159782	1173.092805	-100.478955	-114.101781	1281.405194	-232.951860	-103.078259	1271.313407	-325.837756	35.412385	1103.734376	-49.837201	-5.345761	1070.173466	-476.743203	170.804881	1048.699325	-54.755371	258.617051	1036.612305	-66.909427	327.435000	983.093426	-79.233098	270.698264	1069.012511	-80.747791	424.124593	927.768613	-98.102977	421.713043	900.013931	-225.130882	380.909137	771.347036	-79.389605	370.219323	684.506997	-95.775963	321.676362	612.770205	-89.971979	391.308988	679.291580	-128.707306	261.831587	488.021663	-98.006316	193.405094	460.660942	-140.519505	481.059876	461.317710	-150.973257	418.734091	425.577596	-78.002399	101.244282	964.656959	-486.683224	172.387207	918.143390	-478.064626	199.874019	941.521446	-471.117727	212.531675	838.077459	-470.769366	288.975062	727.092040	-441.239735	298.576353	725.220030	-313.111405	43.397621	379.272408	-409.629074	-22.245604	365.983863	-374.106933	127.979039	224.536776	-446.889685	222.348437	621.765445	-458.858394	195.547701	543.241501	-438.875594	131.368208	482.496279	-434.965082	220.916497	531.637805	-412.471573	223.253541	192.756335	-386.010999	-216.560296	949.043900	-257.489682	-18.075425	80.721392	-460.765312	-18.088420	80.761913	-61.993220	
503	2.5150	443.929856	1340.518898	-16.689819	512.389853	1329.037954	-284.112404	419.311394	1428.873191	-167.426620	416.782171	1247.125004	-169.163864	507.743695	1080.939727	60.803313	748.757213	971.475642	-76.507450	561.788138	1151.674368	-527.380095	781.668227	954.505826	-443.387570	-143.460036	1194.088263	-284.673391	84.918582	1222.144485	-467.567984	44.339718	1232.637091	-58.000732	120.577310	1156.106620	-443.998811	91.771659	1172.824299	-100.641614	-112.962145	1282.788077	-232.719392	-102.230846	1273.019098	-325.625144	35.662269	1103.984363	-50.159201	-6.068975	1071.512371	-477.191634	169.984228	1047.168021	-54.806219	257.691944	1033.671159	-66.905015	325.670261	978.979585	-79.218340	270.315088	1065.810809	-80.653938	421.639475	923.007078	-98.297289	419.450943	894.714130	-224.617285	379.524015	765.694640	-78.909932	369.699375	678.881118	-95.182229	322.267505	606.370286	-89.481983	390.351435	673.933575	-128.239992	264.091722	480.723195	-97.601588	196.086203	452.337839	-140.267051	483.559738	456.930094	-151.073982	421.886664	420.206875	-77.938616	100.802953	965.804529	-486.722414	172.376291	919.791483	-478.040541	199.669181	943.459300	-470.944628	213.151372	839.986334	-470.857538	290.370629	729.520708	-441.376032	299.297212	727.712167	-313.338000	40.400611	384.840286	-409.229448	-25.516220	371.824799	-373.923342	124.400269	230.087259	-447.020181	222.616774	624.679932	-458.912255	195.019730	546.456279	-438.664951	130.157475	486.393436	-434.725981	220.037146	534.700056	-411.978112	219.624992	198.108029	-385.995055	-216.520213	949.055483	-257.529113	-18.061214	80.740826	-460.762305	-18.110952	80.775754	-62.001760	
